<mxfile host="app.diagrams.net" modified="2023-04-13T07:03:10.423Z" agent="Mozilla/5.0 (Macintosh; Intel Mac OS X 10_15_7) AppleWebKit/537.36 (KHTML, like Gecko) Chrome/112.0.0.0 Safari/537.36 Edg/112.0.1722.39" version="21.1.7" etag="QWo1eOMRLgpv8bAD8ftV" type="github">
  <diagram name="第 1 页" id="IvlxRPcr9S85pukTLJrn">
    <mxGraphModel>
      <root>
        <mxCell id="0" />
        <mxCell id="1" parent="0" />
      </root>
    </mxGraphModel>
  </diagram>
</mxfile>
